<?xml version="1.0" encoding="utf-8"?>
<!-- Generator: Adobe Illustrator 19.0.0, SVG Export Plug-In . SVG Version: 6.00 Build 0)  -->
<svg version="1.1" id="Layer_1" xmlns="http://www.w3.org/2000/svg" xmlns:xlink="http://www.w3.org/1999/xlink" x="0px" y="0px"
	 viewBox="0 0 476 104" style="enable-background:new 0 0 476 104;" xml:space="preserve">
<path d="M59.2,91.9c-2.3,2.5-4.6,4.9-6.9,7.4C36.1,83.5,20.1,67.9,4,52.2C20.1,36.5,36.1,20.8,52.3,5c2.3,2.5,4.5,4.9,6.8,7.5
	c-13.3,13-27,26.3-40.7,39.7C32.1,65.5,45.8,78.8,59.2,91.9z"/>
<path d="M63.6,80.2c1.6,1.8,3.2,3.5,4.9,5.2c11.4-11.1,22.7-22.2,34.1-33.2C91.2,41.1,79.9,30,68.4,18.9c-1.6,1.8-3.2,3.5-4.8,5.3
	c9.4,9.2,19,18.6,28.7,28C82.7,61.6,73.1,71,63.6,80.2z"/>
<g>
	<path d="M130.3,30.8h3.6l7.1,25l9.9-25h0.7l9.8,25l7.2-25h3.5l-10,34.6h-0.6l-10.3-26.2l-10.5,26.2h-0.6L130.3,30.8z"/>
	<path d="M178.5,30.8h3.5v14.5h17.6V30.8h3.5v34.6h-3.5V48.7h-17.6v16.7h-3.5V30.8z"/>
	<path d="M210.9,30.8h3.5v34.6h-3.5V30.8z"/>
	<path d="M218.9,34.2v-3.4h19v3.4h-7.7v31.2h-3.5V34.2H218.9z"/>
	<path d="M242.9,30.8h19.8v3.4h-16.4v10.9h16.2v3.4h-16.2v13.6h16.2v3.4h-19.7V30.8z"/>
	<path d="M282.1,30.8h17.4v3.4h-13.9v10.9h13.9v3.4h-13.9v17h-3.5V30.8z"/>
	<path d="M305.5,30.8h19.8v3.4h-16.4v10.9h16.2v3.4h-16.2v13.6h16.2v3.4h-19.7V30.8z"/>
	<path d="M345.5,30.8l16.2,34.6h-3.7l-5.4-11.4h-14.9l-5.4,11.4h-3.9l16.4-34.6H345.5z M345,38.2l-5.9,12.5h11.8L345,38.2z"/>
	<path d="M363.5,34.2v-3.4h19v3.4h-7.7v31.2h-3.5V34.2H363.5z"/>
	<path d="M387.5,30.8h3.5v14.5h17.6V30.8h3.5v34.6h-3.5V48.7h-17.6v16.7h-3.5V30.8z"/>
	<path d="M420.5,30.8h19.8v3.4h-16.4v10.9h16.2v3.4h-16.2v13.6h16.2v3.4h-19.7V30.8z"/>
	<path d="M446.5,30.8h6.9c3.8,0,6.5,0.2,7.8,0.5c2.1,0.5,3.7,1.5,5,3c1.3,1.5,1.9,3.5,1.9,5.7c0,1.9-0.4,3.5-1.3,5
		c-0.9,1.4-2.2,2.5-3.8,3.2s-3.9,1.1-6.8,1.1l12.5,16.1h-4.3l-12.5-16.1h-2v16.1h-3.5V30.8z M449.9,34.2V46l6,0c2.3,0,4-0.2,5.1-0.7
		s2-1.1,2.6-2.1s0.9-2,0.9-3.2c0-1.2-0.3-2.2-0.9-3.2c-0.6-0.9-1.5-1.6-2.5-2c-1-0.4-2.7-0.6-5.1-0.6H449.9z"/>
</g>
</svg>
