<?xml version="1.0" encoding="utf-8"?>
<!-- Generator: Adobe Illustrator 19.0.0, SVG Export Plug-In . SVG Version: 6.00 Build 0)  -->
<svg version="1.1" id="Layer_1" xmlns="http://www.w3.org/2000/svg" xmlns:xlink="http://www.w3.org/1999/xlink" x="0px" y="0px"
	 viewBox="-533.8 377 267.4 39" style="enable-background:new -533.8 377 267.4 39;" xml:space="preserve">
<style type="text/css">
	.st0{fill:#FFFFFF;}
	.st1{opacity:0.5;fill:#D3D3D3;enable-background:new    ;}
</style>
<g>
	<path class="st0" d="M-430.6,386.8L-436,407h-5l-3.3-12.9c-0.2-0.7-0.3-1.4-0.3-2.3h-0.1c-0.1,0.9-0.2,1.7-0.4,2.3l-3.4,12.9h-5.2
		l-5.3-20.2h5l2.8,13.4c0.1,0.6,0.2,1.3,0.3,2.3h0.1c0-0.7,0.2-1.5,0.4-2.4l3.7-13.4h4.9l3.3,13.5c0.1,0.5,0.2,1.2,0.3,2.2h0.1
		c0-0.7,0.1-1.5,0.3-2.3l2.8-13.5H-430.6z"/>
	<path class="st0" d="M-414.7,407h-4.4v-8.2c0-2.1-0.8-3.2-2.3-3.2c-0.8,0-1.4,0.3-1.9,0.9s-0.7,1.3-0.7,2.3v8.2h-4.4v-21.3h4.4v9.1
		h0.1c1.1-1.7,2.6-2.5,4.4-2.5c3.3,0,4.9,2,4.9,5.9V407z"/>
	<path class="st0" d="M-408.9,390.3c-0.8,0-1.4-0.2-1.8-0.7c-0.5-0.4-0.7-1-0.7-1.6c0-0.7,0.2-1.2,0.7-1.6c0.5-0.4,1.1-0.6,1.8-0.6
		c0.8,0,1.4,0.2,1.8,0.6c0.5,0.4,0.7,1,0.7,1.6c0,0.7-0.2,1.2-0.7,1.7C-407.5,390.1-408.2,390.3-408.9,390.3z M-406.7,407h-4.4
		v-14.4h4.4V407z"/>
	<path class="st0" d="M-394.3,406.8c-0.7,0.3-1.6,0.5-3,0.5c-3.1,0-4.7-1.6-4.7-4.9v-6.6h-2.3v-3.3h2.3v-3.1l4.4-1.3v4.4h3.2v3.3
		h-3.2v5.8c0,1.5,0.6,2.3,1.8,2.3c0.5,0,1-0.1,1.4-0.4V406.8z"/>
	<path class="st0" d="M-378.9,401.1h-9.4c0.2,2.1,1.5,3.1,4,3.1c1.6,0,3-0.4,4.2-1.1v3.2c-1.3,0.7-3.1,1.1-5.2,1.1
		c-2.3,0-4.1-0.6-5.4-1.9c-1.3-1.3-1.9-3.1-1.9-5.4c0-2.4,0.7-4.3,2.1-5.7s3.1-2.1,5.1-2.1c2.1,0,3.7,0.6,4.9,1.9
		c1.1,1.2,1.7,2.9,1.7,5.1V401.1z M-383.1,398.3c0-2.1-0.8-3.1-2.5-3.1c-0.7,0-1.3,0.3-1.8,0.9s-0.8,1.3-1,2.2H-383.1z"/>
	<path class="st0" d="M-356.2,390.5h-7.1v5h6.5v3.7h-6.5v7.8h-4.5v-20.2h11.7V390.5z"/>
	<path class="st0" d="M-340.4,401.1h-9.4c0.2,2.1,1.5,3.1,4,3.1c1.6,0,3-0.4,4.2-1.1v3.2c-1.3,0.7-3.1,1.1-5.2,1.1
		c-2.3,0-4.1-0.6-5.4-1.9c-1.3-1.3-1.9-3.1-1.9-5.4c0-2.4,0.7-4.3,2.1-5.7s3.1-2.1,5.1-2.1c2.1,0,3.7,0.6,4.9,1.9
		c1.1,1.2,1.7,2.9,1.7,5.1V401.1z M-344.5,398.3c0-2.1-0.8-3.1-2.5-3.1c-0.7,0-1.3,0.3-1.8,0.9s-0.8,1.3-1,2.2H-344.5z"/>
	<path class="st0" d="M-325.8,407h-4.2v-2.1h-0.1c-1,1.6-2.4,2.4-4.3,2.4c-1.4,0-2.5-0.4-3.3-1.2s-1.2-1.8-1.2-3.2
		c0-2.8,1.7-4.4,5-4.8l3.9-0.5c0-1.6-0.9-2.4-2.6-2.4c-1.7,0-3.3,0.5-4.9,1.5v-3.3c0.6-0.3,1.5-0.6,2.5-0.8c1.1-0.2,2.1-0.4,2.9-0.4
		c4.1,0,6.2,2,6.2,6.1V407z M-330,401.1v-1l-2.6,0.3c-1.4,0.2-2.2,0.8-2.2,2c0,0.5,0.2,0.9,0.5,1.2c0.4,0.3,0.8,0.5,1.4,0.5
		c0.8,0,1.5-0.3,2-0.9C-330.2,402.8-330,402-330,401.1z"/>
	<path class="st0" d="M-313.6,406.8c-0.7,0.3-1.6,0.5-3,0.5c-3.1,0-4.7-1.6-4.7-4.9v-6.6h-2.3v-3.3h2.3v-3.1l4.4-1.3v4.4h3.2v3.3
		h-3.2v5.8c0,1.5,0.6,2.3,1.8,2.3c0.5,0,1-0.1,1.4-0.4V406.8z"/>
	<path class="st0" d="M-297.2,407h-4.4v-8.2c0-2.1-0.8-3.2-2.3-3.2c-0.8,0-1.4,0.3-1.9,0.9s-0.7,1.3-0.7,2.3v8.2h-4.4v-21.3h4.4v9.1
		h0.1c1.1-1.7,2.6-2.5,4.4-2.5c3.3,0,4.9,2,4.9,5.9V407z"/>
	<path class="st0" d="M-280.8,401.1h-9.4c0.2,2.1,1.5,3.1,4,3.1c1.6,0,3-0.4,4.2-1.1v3.2c-1.3,0.7-3.1,1.1-5.2,1.1
		c-2.3,0-4.1-0.6-5.4-1.9c-1.3-1.3-1.9-3.1-1.9-5.4c0-2.4,0.7-4.3,2.1-5.7s3.1-2.1,5.1-2.1c2.1,0,3.7,0.6,4.9,1.9
		c1.1,1.2,1.7,2.9,1.7,5.1V401.1z M-284.9,398.3c0-2.1-0.8-3.1-2.5-3.1c-0.7,0-1.3,0.3-1.8,0.9s-0.8,1.3-1,2.2H-284.9z"/>
	<path class="st0" d="M-268.7,396.6c-0.5-0.3-1.2-0.4-1.9-0.4c-1,0-1.7,0.4-2.3,1.1c-0.5,0.7-0.8,1.7-0.8,2.9v6.9h-4.4v-14.4h4.4
		v2.7h0.1c0.7-2,2-2.9,3.8-2.9c0.5,0,0.8,0.1,1.1,0.2V396.6z"/>
</g>
<path class="st0" d="M-506.7,414.7c-1.7,0-3.6-1.7-2.8-3.7c1.4-3.6,2.8-7.2,4.2-10.8c2.7-6.7,5.4-13.4,8.1-20.1
	c0.5-1.2,1.4-1.9,2.6-2c1.3-0.1,2.4,0.5,2.9,1.7c0.2,0.5,0.3,1.2,0.2,1.7c-0.7,2.1-1.4,4.1-2.2,6.2c-3.4,8.4-6.8,16.8-10.2,25.2
	C-504.4,414-505.4,414.7-506.7,414.7z"/>
<path class="st0" d="M-523.7,396.7c2.6,2.6,5.2,5.1,7.7,7.6c1.3,1.3,2.5,2.6,3.8,3.9c1.3,1.4,1.1,3.1,0.5,4.2
	c-0.8,1.4-2.1,1.9-3.6,1.7c-0.6-0.1-1.2-0.3-1.6-0.7c-4.9-4.9-9.9-9.8-14.8-14.8c-1.2-1.2-1.1-3,0-4.2c4.9-4.9,9.8-9.8,14.7-14.7
	c1.3-1.2,3.3-1.1,4.6,0.3c1.3,1.3,1.5,3.4,0.3,4.6c-2.2,2.4-4.5,4.7-6.8,7C-520.3,393.3-521.9,394.9-523.7,396.7z"/>
<path class="st1" d="M-477.9,396.6c-1.6-1.7-3.2-3.3-4.8-4.9c-2.2-2.2-4.4-4.5-6.6-6.7c-1.1-1.1-1.3-2.5-0.6-3.8
	c0.7-1.4,1.9-2.2,3.5-2.1c0.6,0,1.3,0.3,1.8,0.7c1.1,0.9,2.2,1.9,3.2,3c3.8,3.8,7.5,7.6,11.3,11.4c1.5,1.4,1.5,3.6,0.1,5
	c-4.8,4.8-9.7,9.6-14.4,14.4c-1.1,1.1-3.6,0.9-4.7-0.3c-1.3-1.3-1.5-3.5-0.3-4.7c3.6-3.7,7.2-7.4,10.8-11.1
	C-478.4,397.2-478.2,396.9-477.9,396.6z"/>
</svg>
